<svg aria-hidden="true" style="width:0;height:0;position:absolute;overflow:hidden" xmlns="http://www.w3.org/2000/svg"><defs><symbol id="icon-polygon" viewBox="0 0 52 32"><path fill="#939393" style="fill:var(--color1,#939393)" d="M26 32 .019 2h51.962L26 32z"/></symbol><symbol id="icon-search-icon" viewBox="0 0 35 32"><path fill="#939393" style="fill:var(--color1,#939393)" d="M4.39 5.208c2.831-2.351 6.595-3.646 10.598-3.646s7.767 1.295 10.598 3.646c2.831 2.351 4.39 5.477 4.39 8.801 0 3.04-1.304 5.913-3.691 8.18l8.324 6.913c.4.332.4.87 0 1.203-.2.166-.462.249-.724.249s-.524-.083-.724-.249l-8.324-6.913c-2.73 1.982-6.189 3.065-9.849 3.065-4.004 0-7.767-1.295-10.598-3.646S0 17.334 0 14.009s1.559-6.451 4.39-8.801zm1.448 16.401c5.046 4.19 13.255 4.19 18.3 0s5.045-11.008 0-15.198c-2.523-2.095-5.836-3.143-9.15-3.143S8.36 4.316 5.838 6.411c-5.045 4.19-5.045 11.008 0 15.198z"/></symbol><symbol id="icon-close" viewBox="0 0 32 32"><path fill="#4c00fe" style="fill:var(--color1,#4c00fe)" d="M1.646 32a1.646 1.646 0 0 1-1.163-2.811L29.19.482a1.646 1.646 0 1 1 2.328 2.329L2.811 31.517A1.65 1.65 0 0 1 1.646 32z"/><path fill="#4c00fe" style="fill:var(--color1,#4c00fe)" d="M30.355 32a1.63 1.63 0 0 1-1.163-.483L.483 2.811A1.647 1.647 0 0 1 2.812.482l28.707 28.707A1.646 1.646 0 0 1 30.356 32z"/></symbol><symbol id="icon-ticket1" viewBox="0 0 44 32"><path d="M4.91 1.27H0v29.46h4.91V1.27zm12.35 0h-4.91v29.46h4.91V1.27zm7.439 0h-4.91v29.46h4.91V1.27zm19.491 0h-7.291v29.46h7.291V1.27zm-34.37 0H7.439v29.46H9.82V1.27zm19.64 0h-2.381v29.46h2.381V1.27zm4.91 0h-2.381v29.46h2.381V1.27z"/></symbol><symbol id="icon-location" viewBox="0 0 32 32"><path d="M16 0C10.477 0 6 4.477 6 10c0 10 10 22 10 22s10-12 10-22c0-5.523-4.477-10-10-10zm0 16a6 6 0 1 1 0-12 6 6 0 0 1 0 12z"/></symbol><symbol id="icon-Vector" viewBox="0 0 26 32"><path fill="#fff" style="fill:var(--color1,#fff)" d="M12.075 0C5.417 0 0 4.99 0 11.123 0 18.832 12.087 32 12.087 32S24.15 18.453 24.15 11.123C24.15 4.99 18.733 0 12.075 0zm3.643 14.38c-1.005.925-2.324 1.388-3.643 1.388s-2.639-.463-3.643-1.388c-2.009-1.85-2.009-4.861 0-6.712.973-.896 2.267-1.39 3.643-1.39s2.67.494 3.643 1.39c2.009 1.851 2.009 4.862 0 6.712z"/></symbol></defs></svg>