<svg aria-hidden="true" style="width:0;height:0;position:absolute;overflow:hidden" xmlns="http://www.w3.org/2000/svg"><defs><symbol id="icon-polygon" viewBox="0 0 52 32"><path fill="#939393" style="fill:var(--color1,#939393)" d="M26 32 .019 2h51.962L26 32z"/></symbol><symbol id="icon-search-icon" viewBox="0 0 35 32"><path fill="#939393" style="fill:var(--color1,#939393)" d="M4.39 5.208c2.831-2.351 6.595-3.646 10.598-3.646s7.767 1.295 10.598 3.646c2.831 2.351 4.39 5.477 4.39 8.801 0 3.04-1.304 5.913-3.691 8.18l8.324 6.913c.4.332.4.87 0 1.203-.2.166-.462.249-.724.249s-.524-.083-.724-.249l-8.324-6.913c-2.73 1.982-6.189 3.065-9.849 3.065-4.004 0-7.767-1.295-10.598-3.646S0 17.334 0 14.009s1.559-6.451 4.39-8.801zm1.448 16.401c5.046 4.19 13.255 4.19 18.3 0s5.045-11.008 0-15.198c-2.523-2.095-5.836-3.143-9.15-3.143S8.36 4.316 5.838 6.411c-5.045 4.19-5.045 11.008 0 15.198z"/></symbol></defs></svg>